<svg xmlns="http://www.w3.org/2000/svg" xmlns:xlink="http://www.w3.org/1999/xlink" width="43" height="50" viewBox="0 0 43 50"><defs><path id="5vy8a" d="M407.26 123.63c-.63 1.9-7.16 9.39-8.08 9.96-.92.57-6.18.53-7.23 0-1.05-.53-8.19-8.16-9.02-9.96-.33-.7-.49-3.1-.56-5.74-1.4.17-2.98-1.27-3.63-3.43a5.76 5.76 0 0 1-.08-3.35 35.99 35.99 0 0 0 5.62 2.58 31.6 31.6 0 0 0 10.67 1.9 35.24 35.24 0 0 0 12.75-2.42 38.48 38.48 0 0 0 3.87-1.73c.2.88.17 1.94-.16 3.02-.68 2.22-2.31 3.67-3.74 3.42-.05 2.61-.16 5-.41 5.75zm8.74-20.75v3.53s-1.37 1.26-4.18 2.67c-.85.42-1.55.85-2.59 1.27l-.93.35c-3.23 1.2-8.8 2.77-13.33 2.77a30.74 30.74 0 0 1-12.63-2.82c-.85-.38-1.63-.77-2.35-1.15-3.14-1.7-4.99-3.3-4.99-3.3v-2.26h3.36c.7.84 2.32 2.55 5.79 4.02.07.03.62.25.99-.5.31-.68-.02-1.15-.28-1.27-3.84-1.62-5.25-3.29-5.62-3.81a1.9 1.9 0 0 1-.12-.18l-.08-.1c.74-2.9 3.33-9.62 10.68-11.74v12.52a3.17 3.17 0 0 0 3.15 3.18h5.26a3.17 3.17 0 0 0 3.15-3.18V90.41c8.65 2.72 10.08 9.4 10.64 11.57-.5.67-.83 2.12-4.2 3.55-.28.1-.67.53-.42 1.18.23.6.97.27 1.04.25 3.44-1.46 4.99-3.02 5.64-4.08zm-24.18 0V88.06c0-.58.47-1.06 1.05-1.06h5.26c.58 0 1.05.48 1.05 1.06v14.82c0 .59-.47 1.06-1.05 1.06h-5.26c-.58 0-1.05-.47-1.05-1.06z"/></defs><g><g transform="translate(-374 -86)"><use fill="#ffb300" xlink:href="#5vy8a"/></g></g></svg>